<svg width="302" height="75" viewBox="0 0 302 75" fill="none" xmlns="http://www.w3.org/2000/svg">
<mask id="path-1-outside-1_580_28329" maskUnits="userSpaceOnUse" x="-0.0532227" y="-0.0532227" width="302" height="75" fill="black">
<rect fill="white" x="-0.0532227" y="-0.0532227" width="302" height="75"/>
<path d="M92.1987 17.3237C106.087 17.3238 117.099 25.0618 117.099 38.355V57.105C117.099 58.4939 117.794 59.2876 119.282 59.2876C121.464 59.2875 123.944 57.6012 125.036 56.2124L127.02 70.2993C124.441 71.8866 119.281 72.4819 116.503 72.4819C106.881 72.4817 99.8374 65.6366 99.8374 59.2876V56.6089C96.266 67.5214 90.4129 72.3823 83.0718 72.3823C73.6473 72.3823 67.5962 67.0257 67.5962 58.5933C67.5962 51.0537 73.3501 44.5063 83.1714 44.5063C87.8339 44.5064 93.4885 45.9944 99.8374 50.4585V38.4546C99.8374 32.5023 96.7617 29.3276 91.603 29.3276C86.0477 29.3278 81.3849 33.8912 80.0952 41.5298L67.1987 35.0815C69.3812 24.8634 78.4092 17.3237 92.1987 17.3237ZM240.817 71.3911H229.607L224.051 57.3032C220.976 67.2237 214.528 72.3823 206.393 72.3823C194.786 72.3823 187.345 62.2637 187.345 44.9028C187.345 27.542 194.786 17.4233 206.393 17.4233C214.131 17.4234 220.48 22.1849 223.655 31.2124V1.94678H240.817V71.3911ZM266.797 51.6489C266.797 56.6091 268.782 58.4937 272.353 58.4937C276.817 58.4935 280.487 54.625 282.471 50.2603V18.3159H299.733V71.3911H288.523L282.869 53.5337C280.885 63.5534 275.924 72.3823 265.209 72.3823C256.876 72.3821 249.634 66.5291 249.634 53.2358V18.3159H266.797V51.6489ZM38.6528 1.94678C53.5333 1.94684 62.3626 9.48654 62.3628 21.0933C62.3628 30.617 57.3029 37.8589 46.688 40.7358C58.4933 42.6207 64.0492 47.4821 64.0493 54.9224C64.0493 65.2397 55.0212 71.3911 39.2476 71.3911H1.94678V1.94678H38.6528ZM165.197 17.3237C173.53 17.3237 180.772 23.1769 180.772 36.4702V71.3911H163.61V38.0581C163.61 33.6931 161.626 31.2124 158.054 31.2124C153.59 31.2126 149.92 35.0819 147.936 39.4468V71.3911H130.674V18.3159H141.884L147.44 36.0737C149.523 26.0542 154.582 17.324 165.197 17.3237ZM91.5044 50.855C86.3457 50.855 84.7583 53.3354 84.7583 55.7163C84.7583 58.494 87.0402 60.1802 90.314 60.1802C93.4884 60.1801 96.8613 58.5927 99.8374 53.9302V53.1372C96.3653 51.2524 93.6869 50.855 91.5044 50.855ZM213.635 30.6177C207.981 30.6177 204.607 35.8752 204.607 44.9028C204.607 53.9305 207.981 59.188 213.635 59.188C217.405 59.1879 220.778 57.0058 223.655 52.8394V36.9663C220.778 32.7998 217.405 30.6178 213.635 30.6177ZM19.7046 56.8071H38.1567C43.4145 56.8071 46.3911 54.1289 46.3911 49.4663C46.3911 45.2997 43.2161 43.0181 37.6606 43.0181H19.7046V56.8071ZM19.7046 29.7241H35.3784C41.1323 29.7241 44.7046 27.0458 44.7046 22.5815C44.7045 18.8119 42.0256 16.5298 37.6606 16.5298H19.7046V29.7241Z"/>
</mask>
<path d="M92.1987 17.3237C106.087 17.3238 117.099 25.0618 117.099 38.355V57.105C117.099 58.4939 117.794 59.2876 119.282 59.2876C121.464 59.2875 123.944 57.6012 125.036 56.2124L127.02 70.2993C124.441 71.8866 119.281 72.4819 116.503 72.4819C106.881 72.4817 99.8374 65.6366 99.8374 59.2876V56.6089C96.266 67.5214 90.4129 72.3823 83.0718 72.3823C73.6473 72.3823 67.5962 67.0257 67.5962 58.5933C67.5962 51.0537 73.3501 44.5063 83.1714 44.5063C87.8339 44.5064 93.4885 45.9944 99.8374 50.4585V38.4546C99.8374 32.5023 96.7617 29.3276 91.603 29.3276C86.0477 29.3278 81.3849 33.8912 80.0952 41.5298L67.1987 35.0815C69.3812 24.8634 78.4092 17.3237 92.1987 17.3237ZM240.817 71.3911H229.607L224.051 57.3032C220.976 67.2237 214.528 72.3823 206.393 72.3823C194.786 72.3823 187.345 62.2637 187.345 44.9028C187.345 27.542 194.786 17.4233 206.393 17.4233C214.131 17.4234 220.48 22.1849 223.655 31.2124V1.94678H240.817V71.3911ZM266.797 51.6489C266.797 56.6091 268.782 58.4937 272.353 58.4937C276.817 58.4935 280.487 54.625 282.471 50.2603V18.3159H299.733V71.3911H288.523L282.869 53.5337C280.885 63.5534 275.924 72.3823 265.209 72.3823C256.876 72.3821 249.634 66.5291 249.634 53.2358V18.3159H266.797V51.6489ZM38.6528 1.94678C53.5333 1.94684 62.3626 9.48654 62.3628 21.0933C62.3628 30.617 57.3029 37.8589 46.688 40.7358C58.4933 42.6207 64.0492 47.4821 64.0493 54.9224C64.0493 65.2397 55.0212 71.3911 39.2476 71.3911H1.94678V1.94678H38.6528ZM165.197 17.3237C173.53 17.3237 180.772 23.1769 180.772 36.4702V71.3911H163.61V38.0581C163.61 33.6931 161.626 31.2124 158.054 31.2124C153.59 31.2126 149.92 35.0819 147.936 39.4468V71.3911H130.674V18.3159H141.884L147.44 36.0737C149.523 26.0542 154.582 17.324 165.197 17.3237ZM91.5044 50.855C86.3457 50.855 84.7583 53.3354 84.7583 55.7163C84.7583 58.494 87.0402 60.1802 90.314 60.1802C93.4884 60.1801 96.8613 58.5927 99.8374 53.9302V53.1372C96.3653 51.2524 93.6869 50.855 91.5044 50.855ZM213.635 30.6177C207.981 30.6177 204.607 35.8752 204.607 44.9028C204.607 53.9305 207.981 59.188 213.635 59.188C217.405 59.1879 220.778 57.0058 223.655 52.8394V36.9663C220.778 32.7998 217.405 30.6178 213.635 30.6177ZM19.7046 56.8071H38.1567C43.4145 56.8071 46.3911 54.1289 46.3911 49.4663C46.3911 45.2997 43.2161 43.0181 37.6606 43.0181H19.7046V56.8071ZM19.7046 29.7241H35.3784C41.1323 29.7241 44.7046 27.0458 44.7046 22.5815C44.7045 18.8119 42.0256 16.5298 37.6606 16.5298H19.7046V29.7241Z" fill="url(#paint0_linear_580_28329)"/>
<path d="M92.1987 17.3237L92.1987 15.3771H92.1987V17.3237ZM117.099 38.355H119.046V38.3549L117.099 38.355ZM119.282 59.2876V61.2343H119.282L119.282 59.2876ZM125.036 56.2124L126.963 55.9409L126.326 51.4189L123.505 55.0097L125.036 56.2124ZM127.02 70.2993L128.04 71.9572L129.125 71.2895L128.948 70.0278L127.02 70.2993ZM116.503 72.4819L116.503 74.4286H116.503V72.4819ZM99.8374 56.6089H101.784L97.9873 56.0034L99.8374 56.6089ZM83.0718 72.3823V74.329H83.0718L83.0718 72.3823ZM67.5962 58.5933H65.6495V58.5933L67.5962 58.5933ZM83.1714 44.5063L83.1714 42.5597H83.1714V44.5063ZM99.8374 50.4585L98.7177 52.0509L101.784 54.207V50.4585H99.8374ZM91.603 29.3276V27.381H91.603L91.603 29.3276ZM80.0952 41.5298L79.2246 43.2709L81.5769 44.4471L82.0147 41.8539L80.0952 41.5298ZM67.1987 35.0815L65.295 34.6749L64.9802 36.1487L66.3281 36.8227L67.1987 35.0815ZM240.817 71.3911V73.3378H242.764V71.3911H240.817ZM229.607 71.3911L227.796 72.1053L228.282 73.3378H229.607V71.3911ZM224.051 57.3032L225.862 56.5891L223.831 51.4388L222.192 56.7268L224.051 57.3032ZM206.393 72.3823V74.329H206.393L206.393 72.3823ZM187.345 44.9028H185.399H187.345ZM206.393 17.4233L206.393 15.4767H206.393V17.4233ZM223.655 31.2124L221.818 31.8582L225.601 31.2124H223.655ZM223.655 1.94678V9.78708e-05H221.708V1.94678H223.655ZM240.817 1.94678H242.764V9.78708e-05H240.817V1.94678ZM266.797 51.6489H264.851V51.6489L266.797 51.6489ZM272.353 58.4937V60.4403H272.353L272.353 58.4937ZM282.471 50.2603L284.243 51.0658L284.418 50.6819V50.2603H282.471ZM282.471 18.3159V16.3692H280.525V18.3159H282.471ZM299.733 18.3159H301.68V16.3692H299.733V18.3159ZM299.733 71.3911V73.3378H301.68V71.3911H299.733ZM288.523 71.3911L286.667 71.9787L287.097 73.3378H288.523V71.3911ZM282.869 53.5337L284.725 52.9461L280.959 53.1556L282.869 53.5337ZM265.209 72.3823L265.209 74.329H265.209V72.3823ZM249.634 18.3159V16.3692H247.688V18.3159H249.634ZM266.797 18.3159H268.744V16.3692H266.797V18.3159ZM38.6528 1.94678L38.6528 9.78708e-05H38.6528V1.94678ZM62.3628 21.0933H64.3095V21.0932L62.3628 21.0933ZM46.688 40.7358L46.1788 38.8569L46.3811 42.6582L46.688 40.7358ZM64.0493 54.9224H65.996V54.9223L64.0493 54.9224ZM1.94678 71.3911H9.78708e-05V73.3378H1.94678V71.3911ZM1.94678 1.94678V9.78708e-05H9.78708e-05V1.94678H1.94678ZM165.197 17.3237V15.3771H165.197L165.197 17.3237ZM180.772 36.4702H182.719V36.4702L180.772 36.4702ZM180.772 71.3911V73.3378H182.719V71.3911H180.772ZM163.61 71.3911H161.663V73.3378H163.61V71.3911ZM158.054 31.2124V29.2657H158.054L158.054 31.2124ZM147.936 39.4468L146.164 38.6412L145.989 39.0251V39.4468H147.936ZM147.936 71.3911V73.3378H149.883V71.3911H147.936ZM130.674 71.3911H128.728V73.3378H130.674V71.3911ZM130.674 18.3159V16.3692H128.728V18.3159H130.674ZM141.884 18.3159L143.742 17.7347L143.315 16.3692H141.884V18.3159ZM147.44 36.0737L145.582 36.655L147.82 43.8084L149.346 36.47L147.44 36.0737ZM91.5044 50.855L91.5044 48.9083H91.5044V50.855ZM84.7583 55.7163H82.8116V55.7163L84.7583 55.7163ZM90.314 60.1802V62.1269H90.314L90.314 60.1802ZM99.8374 53.9302L101.478 54.9776L101.784 54.4985V53.9302H99.8374ZM99.8374 53.1372H101.784V51.979L100.766 51.4264L99.8374 53.1372ZM213.635 30.6177L213.635 28.671H213.635V30.6177ZM204.607 44.9028L202.66 44.9028V44.9028H204.607ZM213.635 59.188V61.1347H213.635L213.635 59.188ZM223.655 52.8394L225.257 53.9454L225.601 53.4461V52.8394H223.655ZM223.655 36.9663H225.601V36.3595L225.257 35.8602L223.655 36.9663ZM19.7046 56.8071H17.7579V58.7538H19.7046V56.8071ZM38.1567 56.8071V58.7538H38.1567L38.1567 56.8071ZM46.3911 49.4663H48.3378H46.3911ZM37.6606 43.0181L37.6606 41.0714H37.6606V43.0181ZM19.7046 43.0181V41.0714H17.7579V43.0181H19.7046ZM19.7046 29.7241H17.7579V31.6708H19.7046V29.7241ZM44.7046 22.5815H46.6513V22.5815L44.7046 22.5815ZM37.6606 16.5298L37.6607 14.5831H37.6606V16.5298ZM19.7046 16.5298V14.5831H17.7579V16.5298H19.7046ZM92.1987 17.3237L92.1987 19.2704C98.8008 19.2704 104.567 21.111 108.64 24.3737C112.67 27.6023 115.152 32.3023 115.152 38.355L117.099 38.355L119.046 38.3549C119.046 31.1145 116.022 25.2989 111.074 21.3351C106.169 17.4055 99.4851 15.3771 92.1987 15.3771L92.1987 17.3237ZM117.099 38.355H115.152V57.105H117.099H119.046V38.355H117.099ZM117.099 57.105H115.152C115.152 58.0992 115.402 59.2104 116.233 60.0701C117.075 60.9418 118.205 61.2343 119.282 61.2343V59.2876V57.3409C119.078 57.3409 118.981 57.3132 118.957 57.3047C118.941 57.2993 118.982 57.3122 119.032 57.3641C119.081 57.4147 119.089 57.4506 119.081 57.4259C119.07 57.3934 119.046 57.2952 119.046 57.105H117.099ZM119.282 59.2876L119.282 61.2343C120.838 61.2342 122.345 60.6484 123.542 59.956C124.75 59.2577 125.844 58.3345 126.566 57.4151L125.036 56.2124L123.505 55.0097C123.136 55.4791 122.444 56.0935 121.593 56.5856C120.732 57.0836 119.908 57.3409 119.282 57.3409L119.282 59.2876ZM125.036 56.2124L123.108 56.4839L125.092 70.5709L127.02 70.2993L128.948 70.0278L126.963 55.9409L125.036 56.2124ZM127.02 70.2993L126 68.6414C125.032 69.2371 123.394 69.7327 121.496 70.069C119.649 70.3965 117.778 70.5353 116.503 70.5353V72.4819V74.4286C118.007 74.4286 120.105 74.2697 122.176 73.9027C124.197 73.5445 126.429 72.9488 128.04 71.9572L127.02 70.2993ZM116.503 72.4819L116.503 70.5353C112.157 70.5352 108.435 68.9899 105.819 66.7788C103.174 64.5435 101.784 61.7501 101.784 59.2876H99.8374H97.8907C97.8907 63.1741 100.023 66.9778 103.305 69.7523C106.617 72.5511 111.227 74.4285 116.503 74.4286L116.503 72.4819ZM99.8374 59.2876H101.784V56.6089H99.8374H97.8907V59.2876H99.8374ZM99.8374 56.6089L97.9873 56.0034C96.2664 61.2617 94.0555 64.8697 91.5563 67.1496C89.0965 69.3936 86.2692 70.4356 83.0718 70.4356L83.0718 72.3823L83.0718 74.329C87.2155 74.329 90.9853 72.9406 94.1802 70.0259C97.3357 67.1474 99.8371 62.8686 101.688 57.2144L99.8374 56.6089ZM83.0718 72.3823V70.4356C78.7188 70.4356 75.3489 69.2012 73.0935 67.1953C70.8626 65.2112 69.5429 62.3162 69.5429 58.5933L67.5962 58.5933L65.6495 58.5933C65.6495 63.3027 67.3553 67.3023 70.5061 70.1045C73.6324 72.8851 78.0002 74.329 83.0718 74.329V72.3823ZM67.5962 58.5933H69.5429C69.5429 52.1891 74.3639 46.453 83.1714 46.453V44.5063V42.5597C72.3362 42.5597 65.6495 49.9183 65.6495 58.5933H67.5962ZM83.1714 44.5063L83.1713 46.453C87.3924 46.4531 92.6617 47.7928 98.7177 52.0509L99.8374 50.4585L100.957 48.8661C94.3153 44.196 88.2755 42.5598 83.1714 42.5597L83.1714 44.5063ZM99.8374 50.4585H101.784V38.4546H99.8374H97.8907V50.4585H99.8374ZM99.8374 38.4546H101.784C101.784 35.1618 100.932 32.3473 99.0878 30.3415C97.2219 28.3121 94.5902 27.381 91.603 27.381V29.3276V31.2743C93.7746 31.2743 95.26 31.9305 96.2217 32.9765C97.205 34.0461 97.8907 35.7951 97.8907 38.4546H99.8374ZM91.603 29.3276L91.603 27.381C84.7734 27.3812 79.5626 32.9909 78.1757 41.2057L80.0952 41.5298L82.0147 41.8539C83.2071 34.7914 87.322 31.2745 91.6031 31.2743L91.603 29.3276ZM80.0952 41.5298L80.9658 39.7886L68.0693 33.3404L67.1987 35.0815L66.3281 36.8227L79.2246 43.2709L80.0952 41.5298ZM67.1987 35.0815L69.1025 35.4882C71.0653 26.2983 79.1877 19.2704 92.1987 19.2704V17.3237V15.3771C77.6308 15.3771 67.6971 23.4285 65.295 34.6749L67.1987 35.0815ZM240.817 71.3911V69.4444H229.607V71.3911V73.3378H240.817V71.3911ZM229.607 71.3911L231.418 70.6769L225.862 56.5891L224.051 57.3032L222.24 58.0174L227.796 72.1053L229.607 71.3911ZM224.051 57.3032L222.192 56.7268C220.738 61.4168 218.533 64.8348 215.868 67.072C213.221 69.2939 210.024 70.4356 206.393 70.4356L206.393 72.3823L206.393 74.329C210.897 74.329 214.991 72.8914 218.371 70.0539C221.733 67.2316 224.289 63.1101 225.911 57.8796L224.051 57.3032ZM206.393 72.3823V70.4356C201.234 70.4356 197.061 68.2231 194.108 64.0317C191.104 59.7685 189.292 53.3388 189.292 44.9028H187.345H185.399C185.399 53.8278 187.306 61.1378 190.925 66.2741C194.594 71.4823 199.945 74.329 206.393 74.329V72.3823ZM187.345 44.9028H189.292C189.292 36.4669 191.104 30.0371 194.108 25.7739C197.061 21.5826 201.234 19.37 206.393 19.37V17.4233V15.4767C199.945 15.4767 194.594 18.3234 190.925 23.5316C187.306 28.6679 185.399 35.9779 185.399 44.9028H187.345ZM206.393 17.4233L206.393 19.37C213.153 19.3701 218.864 23.456 221.818 31.8582L223.655 31.2124L225.491 30.5666C222.097 20.9137 215.109 15.4767 206.393 15.4767L206.393 17.4233ZM223.655 31.2124H225.601V1.94678H223.655H221.708V31.2124H223.655ZM223.655 1.94678V3.89346H240.817V1.94678V9.78708e-05H223.655V1.94678ZM240.817 1.94678H238.87V71.3911H240.817H242.764V1.94678H240.817ZM266.797 51.6489L264.851 51.6489C264.851 54.3298 265.377 56.5994 266.763 58.2038C268.204 59.8724 270.234 60.4403 272.353 60.4403V58.4937V56.547C270.9 56.547 270.153 56.1726 269.709 55.6589C269.21 55.081 268.744 53.9283 268.744 51.6489L266.797 51.6489ZM272.353 58.4937L272.353 60.4403C277.984 60.4401 282.154 55.6625 284.243 51.0658L282.471 50.2603L280.699 49.4547C278.82 53.5875 275.65 56.5468 272.353 56.547L272.353 58.4937ZM282.471 50.2603H284.418V18.3159H282.471H280.525V50.2603H282.471ZM282.471 18.3159V20.2626H299.733V18.3159V16.3692H282.471V18.3159ZM299.733 18.3159H297.786V71.3911H299.733H301.68V18.3159H299.733ZM299.733 71.3911V69.4444H288.523V71.3911V73.3378H299.733V71.3911ZM288.523 71.3911L290.379 70.8035L284.725 52.9461L282.869 53.5337L281.013 54.1213L286.667 71.9787L288.523 71.3911ZM282.869 53.5337L280.959 53.1556C279.998 58.0071 278.35 62.3698 275.806 65.4835C273.322 68.5224 269.943 70.4356 265.209 70.4356V72.3823V74.329C271.19 74.329 275.649 71.8278 278.82 67.9473C281.93 64.1416 283.755 59.08 284.778 53.9118L282.869 53.5337ZM265.209 72.3823L265.21 70.4356C261.51 70.4356 258.167 69.1466 255.735 66.4817C253.293 63.8061 251.581 59.5355 251.581 53.2358H249.634H247.688C247.688 60.2294 249.597 65.532 252.859 69.1063C256.131 72.6912 260.576 74.3289 265.209 74.329L265.209 72.3823ZM249.634 53.2358H251.581V18.3159H249.634H247.688V53.2358H249.634ZM249.634 18.3159V20.2626H266.797V18.3159V16.3692H249.634V18.3159ZM266.797 18.3159H264.851V51.6489H266.797H268.744V18.3159H266.797ZM38.6528 1.94678L38.6528 3.89346C45.7846 3.89349 51.2299 5.70095 54.8535 8.67274C58.4343 11.6095 60.416 15.8252 60.4161 21.0933L62.3628 21.0933L64.3095 21.0932C64.3094 14.7546 61.8763 9.39712 57.3224 5.66231C52.8112 1.96255 46.4015 0.000128508 38.6528 9.78708e-05L38.6528 1.94678ZM62.3628 21.0933H60.4161C60.4161 25.5036 59.2493 29.2558 56.9645 32.2182C54.6795 35.1809 51.1577 37.5075 46.1788 38.8569L46.688 40.7358L47.1972 42.6147C52.8332 41.0872 57.1488 38.3544 60.0475 34.5959C62.9464 30.8373 64.3095 26.2066 64.3095 21.0933H62.3628ZM46.688 40.7358L46.3811 42.6582C52.1137 43.5735 56.0649 45.1763 58.5513 47.2429C60.9555 49.2412 62.1026 51.7604 62.1026 54.9224L64.0493 54.9224L65.996 54.9223C65.9959 50.6441 64.365 47.0125 61.0399 44.2488C57.797 41.5534 53.0676 39.7831 46.9949 38.8135L46.688 40.7358ZM64.0493 54.9224H62.1026C62.1026 59.4204 60.1789 62.9352 56.4815 65.4075C52.6919 67.9413 46.9227 69.4444 39.2476 69.4444V71.3911V73.3378C47.3461 73.3378 53.9777 71.7652 58.6456 68.644C63.4057 65.4612 65.996 60.7416 65.996 54.9224H64.0493ZM39.2476 71.3911V69.4444H1.94678V71.3911V73.3378H39.2476V71.3911ZM1.94678 71.3911H3.89346V1.94678H1.94678H9.78708e-05V71.3911H1.94678ZM1.94678 1.94678V3.89346H38.6528V1.94678V9.78708e-05H1.94678V1.94678ZM165.197 17.3237V19.2704C168.897 19.2704 172.239 20.5593 174.671 23.2243C177.113 25.8999 178.825 30.1705 178.825 36.4702L180.772 36.4702L182.719 36.4702C182.719 29.4766 180.809 24.174 177.547 20.5997C174.275 17.0148 169.83 15.3771 165.197 15.3771V17.3237ZM180.772 36.4702H178.825V71.3911H180.772H182.719V36.4702H180.772ZM180.772 71.3911V69.4444H163.61V71.3911V73.3378H180.772V71.3911ZM163.61 71.3911H165.557V38.0581H163.61H161.663V71.3911H163.61ZM163.61 38.0581H165.557C165.557 35.6145 165.005 33.4071 163.685 31.7745C162.315 30.0793 160.328 29.2657 158.054 29.2657V31.2124V33.1591C159.352 33.1591 160.143 33.5858 160.657 34.2222C161.223 34.9212 161.663 36.1367 161.663 38.0581H163.61ZM158.054 31.2124L158.054 29.2657C152.423 29.2659 148.253 34.0446 146.164 38.6412L147.936 39.4468L149.708 40.2523C151.587 36.1191 154.757 33.1592 158.054 33.1591L158.054 31.2124ZM147.936 39.4468H145.989V71.3911H147.936H149.883V39.4468H147.936ZM147.936 71.3911V69.4444H130.674V71.3911V73.3378H147.936V71.3911ZM130.674 71.3911H132.621V18.3159H130.674H128.728V71.3911H130.674ZM130.674 18.3159V20.2626H141.884V18.3159V16.3692H130.674V18.3159ZM141.884 18.3159L140.026 18.8972L145.582 36.655L147.44 36.0737L149.298 35.4925L143.742 17.7347L141.884 18.3159ZM147.44 36.0737L149.346 36.47C150.354 31.6206 152.048 27.279 154.617 24.185C157.126 21.1623 160.51 19.2705 165.197 19.2704L165.197 17.3237L165.197 15.3771C159.269 15.3772 154.816 17.8506 151.621 21.698C148.486 25.474 146.609 30.5073 145.534 35.6775L147.44 36.0737ZM91.5044 50.855V48.9083C88.6368 48.9083 86.4253 49.5971 84.91 50.9321C83.3671 52.2914 82.8116 54.0858 82.8116 55.7163H84.7583H86.705C86.705 54.9659 86.9432 54.3297 87.4837 53.8535C88.0518 53.353 89.2134 52.8017 91.5044 52.8017V50.855ZM84.7583 55.7163L82.8116 55.7163C82.8116 57.6952 83.6507 59.3788 85.1068 60.5214C86.5151 61.6264 88.3646 62.1269 90.314 62.1269V60.1802V58.2335C88.9896 58.2335 88.0613 57.8908 87.5102 57.4584C87.0069 57.0634 86.705 56.5151 86.705 55.7163L84.7583 55.7163ZM90.314 60.1802L90.314 62.1269C94.28 62.1267 98.2188 60.0842 101.478 54.9776L99.8374 53.9302L98.1965 52.8828C95.5039 57.1012 92.6969 58.2334 90.3139 58.2335L90.314 60.1802ZM99.8374 53.9302H101.784V53.1372H99.8374H97.8907V53.9302H99.8374ZM99.8374 53.1372L100.766 51.4264C96.986 49.3743 93.984 48.9083 91.5044 48.9083L91.5044 50.855L91.5044 52.8017C93.3897 52.8017 95.7447 53.1305 98.9087 54.8481L99.8374 53.1372ZM213.635 30.6177V28.671C210.096 28.671 207.239 30.3661 205.357 33.3318C203.534 36.2039 202.66 40.1889 202.66 44.9028L204.607 44.9028L206.554 44.9028C206.554 40.5891 207.366 37.4315 208.644 35.418C209.863 33.498 211.52 32.5644 213.635 32.5644V30.6177ZM204.607 44.9028H202.66C202.66 49.6168 203.534 53.6018 205.357 56.4739C207.239 59.4396 210.096 61.1347 213.635 61.1347V59.188V57.2413C211.52 57.2413 209.863 56.3076 208.644 54.3877C207.366 52.3741 206.554 49.2165 206.554 44.9028H204.607ZM213.635 59.188L213.635 61.1347C218.271 61.1345 222.167 58.42 225.257 53.9454L223.655 52.8394L222.053 51.7333C219.389 55.5917 216.539 57.2412 213.635 57.2413L213.635 59.188ZM223.655 52.8394H225.601V36.9663H223.655H221.708V52.8394H223.655ZM223.655 36.9663L225.257 35.8602C222.167 31.3857 218.271 28.6712 213.635 28.671L213.635 30.6177L213.635 32.5644C216.539 32.5645 219.389 34.214 222.053 38.0724L223.655 36.9663ZM19.7046 56.8071V58.7538H38.1567V56.8071V54.8605H19.7046V56.8071ZM38.1567 56.8071L38.1567 58.7538C41.0951 58.7538 43.6759 58.0051 45.5428 56.3367C47.4416 54.6398 48.3378 52.2279 48.3378 49.4663H46.3911H44.4444C44.4444 51.3673 43.8523 52.6259 42.9484 53.4337C42.0126 54.27 40.4762 54.8604 38.1567 54.8605L38.1567 56.8071ZM46.3911 49.4663H48.3378C48.3378 46.8252 47.2968 44.6031 45.2603 43.1099C43.3124 41.6815 40.6629 41.0714 37.6606 41.0714L37.6606 43.0181L37.6606 44.9647C40.2138 44.9648 41.9296 45.4954 42.958 46.2496C43.8979 46.9388 44.4444 47.9408 44.4444 49.4663H46.3911ZM37.6606 43.0181V41.0714H19.7046V43.0181V44.9647H37.6606V43.0181ZM19.7046 43.0181H17.7579V56.8071H19.7046H21.6513V43.0181H19.7046ZM19.7046 29.7241V31.6708H35.3784V29.7241V27.7774H19.7046V29.7241ZM35.3784 29.7241V31.6708C38.5282 31.6708 41.3228 30.941 43.3785 29.3757C45.4967 27.763 46.6513 25.3928 46.6513 22.5815H44.7046H42.7579C42.7579 24.2345 42.1264 25.4356 41.0199 26.2781C39.8511 27.1681 37.9825 27.7774 35.3784 27.7774V29.7241ZM44.7046 22.5815L46.6513 22.5815C46.6512 20.2037 45.7872 18.1219 44.0863 16.664C42.4225 15.2379 40.1641 14.5831 37.6607 14.5831L37.6606 16.5298L37.6606 18.4765C39.5222 18.4765 40.7857 18.9627 41.5526 19.6201C42.2823 20.2456 42.7579 21.1897 42.7579 22.5816L44.7046 22.5815ZM37.6606 16.5298V14.5831H19.7046V16.5298V18.4765H37.6606V16.5298ZM19.7046 16.5298H17.7579V29.7241H19.7046H21.6513V16.5298H19.7046Z" fill="url(#paint1_linear_580_28329)" mask="url(#path-1-outside-1_580_28329)"/>
<defs>
<linearGradient id="paint0_linear_580_28329" x1="5.38141" y1="9.67142" x2="33.1907" y2="127.078" gradientUnits="userSpaceOnUse">
<stop stop-color="white"/>
<stop offset="1" stop-color="white" stop-opacity="0.6"/>
</linearGradient>
<linearGradient id="paint1_linear_580_28329" x1="5.3817" y1="9.67116" x2="33.1904" y2="127.082" gradientUnits="userSpaceOnUse">
<stop stop-color="white" stop-opacity="0.6"/>
<stop offset="0.4927" stop-color="white" stop-opacity="0"/>
<stop offset="0.9971" stop-color="white" stop-opacity="0.3"/>
</linearGradient>
</defs>
</svg>
